<?xml version="1.0" encoding="UTF-8"?>
<svg xmlns="http://www.w3.org/2000/svg" version="1.1" width="300" height="300" viewBox="0 0 300 300"><rect x="0" y="0" width="300" height="300" fill="#ffffff"/><g transform="scale(10.345)"><g transform="translate(0,0)"><path fill-rule="evenodd" d="M10 0L10 2L11 2L11 0ZM12 0L12 1L13 1L13 2L12 2L12 4L13 4L13 3L14 3L14 4L16 4L16 5L15 5L15 6L14 6L14 8L16 8L16 9L18 9L18 10L21 10L21 13L19 13L19 12L20 12L20 11L19 11L19 12L17 12L17 13L16 13L16 12L14 12L14 11L17 11L17 10L15 10L15 9L12 9L12 7L13 7L13 5L11 5L11 6L10 6L10 4L11 4L11 3L8 3L8 4L9 4L9 5L8 5L8 7L9 7L9 8L6 8L6 9L5 9L5 8L0 8L0 9L1 9L1 10L0 10L0 11L1 11L1 10L2 10L2 9L3 9L3 10L4 10L4 9L5 9L5 10L6 10L6 11L5 11L5 12L4 12L4 11L3 11L3 13L4 13L4 14L1 14L1 13L2 13L2 12L0 12L0 14L1 14L1 15L4 15L4 14L5 14L5 16L4 16L4 17L3 17L3 16L2 16L2 17L1 17L1 16L0 16L0 21L1 21L1 18L2 18L2 19L4 19L4 18L5 18L5 19L7 19L7 20L6 20L6 21L7 21L7 20L8 20L8 23L9 23L9 22L11 22L11 23L10 23L10 24L8 24L8 29L11 29L11 28L10 28L10 26L11 26L11 25L12 25L12 26L13 26L13 27L12 27L12 29L13 29L13 28L14 28L14 29L16 29L16 28L14 28L14 27L16 27L16 26L15 26L15 25L12 25L12 23L13 23L13 22L11 22L11 18L9 18L9 14L10 14L10 13L11 13L11 12L9 12L9 10L8 10L8 9L10 9L10 11L11 11L11 9L12 9L12 10L13 10L13 11L12 11L12 13L13 13L13 12L14 12L14 13L16 13L16 14L15 14L15 15L14 15L14 16L15 16L15 17L12 17L12 15L13 15L13 14L11 14L11 16L10 16L10 17L12 17L12 18L13 18L13 19L12 19L12 21L13 21L13 20L14 20L14 21L19 21L19 20L20 20L20 22L18 22L18 24L16 24L16 23L17 23L17 22L15 22L15 23L14 23L14 24L16 24L16 25L19 25L19 24L20 24L20 26L17 26L17 27L18 27L18 28L17 28L17 29L18 29L18 28L19 28L19 29L20 29L20 28L21 28L21 27L20 27L20 26L22 26L22 27L23 27L23 29L24 29L24 28L25 28L25 26L26 26L26 25L27 25L27 28L26 28L26 29L27 29L27 28L28 28L28 26L29 26L29 25L27 25L27 24L28 24L28 22L29 22L29 21L28 21L28 20L26 20L26 17L28 17L28 18L27 18L27 19L28 19L28 18L29 18L29 17L28 17L28 16L29 16L29 15L28 15L28 14L29 14L29 13L28 13L28 10L29 10L29 9L28 9L28 8L27 8L27 9L28 9L28 10L26 10L26 8L25 8L25 9L24 9L24 8L23 8L23 9L22 9L22 8L21 8L21 5L20 5L20 4L21 4L21 3L20 3L20 2L19 2L19 1L20 1L20 0L19 0L19 1L18 1L18 2L19 2L19 3L17 3L17 4L16 4L16 3L14 3L14 2L16 2L16 0L15 0L15 1L14 1L14 0ZM8 1L8 2L9 2L9 1ZM19 3L19 4L20 4L20 3ZM17 5L17 7L16 7L16 6L15 6L15 7L16 7L16 8L18 8L18 9L21 9L21 10L22 10L22 11L23 11L23 12L22 12L22 13L23 13L23 15L22 15L22 14L21 14L21 16L20 16L20 14L19 14L19 13L17 13L17 14L16 14L16 15L15 15L15 16L16 16L16 17L15 17L15 18L16 18L16 19L14 19L14 20L16 20L16 19L17 19L17 20L19 20L19 19L20 19L20 20L21 20L21 19L22 19L22 20L23 20L23 19L24 19L24 18L22 18L22 17L26 17L26 16L28 16L28 15L27 15L27 14L28 14L28 13L26 13L26 16L24 16L24 15L25 15L25 14L24 14L24 13L25 13L25 12L27 12L27 11L26 11L26 10L25 10L25 11L24 11L24 9L23 9L23 10L22 10L22 9L21 9L21 8L20 8L20 5ZM9 6L9 7L10 7L10 6ZM11 6L11 7L12 7L12 6ZM18 6L18 7L19 7L19 6ZM10 8L10 9L11 9L11 8ZM6 9L6 10L7 10L7 9ZM6 11L6 12L7 12L7 11ZM23 12L23 13L24 13L24 12ZM6 13L6 14L7 14L7 13ZM8 13L8 14L9 14L9 13ZM17 14L17 15L19 15L19 14ZM6 15L6 16L5 16L5 17L6 17L6 18L8 18L8 20L9 20L9 21L10 21L10 20L9 20L9 18L8 18L8 17L6 17L6 16L7 16L7 15ZM17 16L17 17L16 17L16 18L17 18L17 17L19 17L19 18L20 18L20 16ZM21 16L21 17L22 17L22 16ZM2 17L2 18L3 18L3 17ZM2 20L2 21L5 21L5 20ZM25 20L25 21L26 21L26 22L25 22L25 24L27 24L27 22L28 22L28 21L26 21L26 20ZM21 21L21 24L24 24L24 21ZM22 22L22 23L23 23L23 22ZM22 25L22 26L25 26L25 25ZM19 27L19 28L20 28L20 27ZM0 0L0 7L7 7L7 0ZM1 1L1 6L6 6L6 1ZM2 2L2 5L5 5L5 2ZM22 0L22 7L29 7L29 0ZM23 1L23 6L28 6L28 1ZM24 2L24 5L27 5L27 2ZM0 22L0 29L7 29L7 22ZM1 23L1 28L6 28L6 23ZM2 24L2 27L5 27L5 24Z" fill="#000000"/></g></g></svg>
