<?xml version="1.0" encoding="UTF-8"?>
<svg xmlns="http://www.w3.org/2000/svg" version="1.1" width="300" height="300" viewBox="0 0 300 300"><rect x="0" y="0" width="300" height="300" fill="#ffffff"/><g transform="scale(9.091)"><g transform="translate(0,0)"><path fill-rule="evenodd" d="M9 0L9 1L8 1L8 2L9 2L9 3L8 3L8 4L10 4L10 7L11 7L11 4L12 4L12 5L13 5L13 6L12 6L12 9L13 9L13 8L14 8L14 9L17 9L17 10L15 10L15 11L14 11L14 12L15 12L15 13L12 13L12 11L13 11L13 10L11 10L11 11L10 11L10 9L11 9L11 8L6 8L6 9L5 9L5 8L0 8L0 9L5 9L5 10L3 10L3 11L1 11L1 10L0 10L0 11L1 11L1 12L0 12L0 13L1 13L1 12L2 12L2 13L3 13L3 14L4 14L4 13L3 13L3 12L5 12L5 10L6 10L6 11L7 11L7 12L6 12L6 13L5 13L5 15L4 15L4 16L1 16L1 15L0 15L0 18L1 18L1 20L2 20L2 21L0 21L0 25L1 25L1 22L3 22L3 23L4 23L4 24L2 24L2 25L4 25L4 24L5 24L5 25L7 25L7 24L5 24L5 23L4 23L4 22L5 22L5 21L7 21L7 20L9 20L9 19L10 19L10 20L11 20L11 21L12 21L12 22L13 22L13 23L12 23L12 25L13 25L13 24L14 24L14 25L19 25L19 26L21 26L21 27L20 27L20 29L19 29L19 27L18 27L18 26L15 26L15 27L14 27L14 28L16 28L16 29L19 29L19 30L20 30L20 32L19 32L19 31L18 31L18 32L17 32L17 30L15 30L15 29L12 29L12 27L13 27L13 26L11 26L11 24L10 24L10 21L8 21L8 22L6 22L6 23L8 23L8 24L10 24L10 26L9 26L9 25L8 25L8 27L9 27L9 28L8 28L8 33L9 33L9 32L10 32L10 31L9 31L9 30L11 30L11 29L12 29L12 30L13 30L13 31L12 31L12 33L13 33L13 32L14 32L14 33L20 33L20 32L22 32L22 31L23 31L23 32L24 32L24 33L25 33L25 32L24 32L24 31L27 31L27 30L29 30L29 32L31 32L31 33L32 33L32 32L31 32L31 31L30 31L30 30L33 30L33 27L32 27L32 26L33 26L33 24L32 24L32 26L31 26L31 27L30 27L30 25L29 25L29 24L31 24L31 23L32 23L32 22L33 22L33 21L32 21L32 20L31 20L31 19L32 19L32 18L33 18L33 17L32 17L32 16L31 16L31 15L32 15L32 14L33 14L33 13L31 13L31 15L30 15L30 13L29 13L29 12L28 12L28 11L29 11L29 10L28 10L28 11L27 11L27 12L28 12L28 13L29 13L29 14L28 14L28 16L27 16L27 13L25 13L25 12L24 12L24 11L26 11L26 10L27 10L27 9L28 9L28 8L27 8L27 9L26 9L26 8L25 8L25 4L24 4L24 3L25 3L25 2L24 2L24 3L23 3L23 2L22 2L22 1L25 1L25 0L22 0L22 1L21 1L21 2L20 2L20 3L23 3L23 4L19 4L19 2L18 2L18 3L17 3L17 2L16 2L16 3L17 3L17 4L19 4L19 5L18 5L18 7L19 7L19 5L20 5L20 7L21 7L21 8L14 8L14 7L15 7L15 6L16 6L16 7L17 7L17 5L16 5L16 4L12 4L12 2L13 2L13 1L11 1L11 2L10 2L10 0ZM15 0L15 1L17 1L17 0ZM19 0L19 1L20 1L20 0ZM14 2L14 3L15 3L15 2ZM10 3L10 4L11 4L11 3ZM8 5L8 7L9 7L9 5ZM21 5L21 7L22 7L22 8L21 8L21 9L20 9L20 10L17 10L17 11L15 11L15 12L20 12L20 14L19 14L19 13L15 13L15 14L16 14L16 15L14 15L14 16L13 16L13 17L12 17L12 15L13 15L13 14L12 14L12 13L11 13L11 12L10 12L10 13L9 13L9 9L6 9L6 10L7 10L7 11L8 11L8 12L7 12L7 13L6 13L6 14L7 14L7 15L5 15L5 16L4 16L4 17L1 17L1 18L2 18L2 19L4 19L4 17L6 17L6 18L7 18L7 19L5 19L5 20L3 20L3 21L5 21L5 20L7 20L7 19L9 19L9 18L7 18L7 17L8 17L8 16L9 16L9 17L11 17L11 18L13 18L13 19L12 19L12 21L15 21L15 22L16 22L16 23L14 23L14 24L16 24L16 23L17 23L17 24L18 24L18 23L17 23L17 22L18 22L18 21L20 21L20 22L19 22L19 25L23 25L23 26L22 26L22 27L23 27L23 29L22 29L22 28L21 28L21 29L20 29L20 30L21 30L21 29L22 29L22 30L23 30L23 31L24 31L24 27L23 27L23 26L24 26L24 25L23 25L23 24L20 24L20 23L21 23L21 21L27 21L27 22L23 22L23 23L24 23L24 24L28 24L28 23L30 23L30 22L31 22L31 20L29 20L29 21L27 21L27 19L26 19L26 18L25 18L25 17L27 17L27 18L28 18L28 19L29 19L29 17L30 17L30 19L31 19L31 16L30 16L30 15L29 15L29 17L27 17L27 16L26 16L26 14L25 14L25 13L24 13L24 12L20 12L20 10L22 10L22 11L24 11L24 10L25 10L25 9L24 9L24 8L23 8L23 7L24 7L24 5L23 5L23 7L22 7L22 5ZM13 6L13 7L14 7L14 6ZM29 8L29 9L30 9L30 8ZM31 8L31 10L33 10L33 9L32 9L32 8ZM22 9L22 10L24 10L24 9ZM30 11L30 12L31 12L31 11ZM7 13L7 14L8 14L8 15L9 15L9 16L10 16L10 15L9 15L9 13ZM10 13L10 14L11 14L11 13ZM23 13L23 14L20 14L20 16L22 16L22 17L19 17L19 14L18 14L18 16L17 16L17 17L16 17L16 16L14 16L14 17L16 17L16 18L15 18L15 19L14 19L14 20L15 20L15 21L18 21L18 20L16 20L16 18L17 18L17 19L19 19L19 18L21 18L21 19L20 19L20 21L21 21L21 20L23 20L23 18L24 18L24 17L25 17L25 16L24 16L24 17L23 17L23 14L24 14L24 13ZM6 16L6 17L7 17L7 16ZM17 17L17 18L19 18L19 17ZM22 17L22 18L23 18L23 17ZM24 19L24 20L25 20L25 19ZM29 21L29 22L30 22L30 21ZM27 22L27 23L28 23L28 22ZM25 25L25 28L28 28L28 25ZM26 26L26 27L27 27L27 26ZM16 27L16 28L18 28L18 27ZM31 27L31 28L29 28L29 30L30 30L30 29L32 29L32 27ZM9 28L9 29L11 29L11 28ZM25 29L25 30L27 30L27 29ZM14 31L14 32L15 32L15 31ZM27 32L27 33L28 33L28 32ZM0 0L0 7L7 7L7 0ZM1 1L1 6L6 6L6 1ZM2 2L2 5L5 5L5 2ZM26 0L26 7L33 7L33 0ZM27 1L27 6L32 6L32 1ZM28 2L28 5L31 5L31 2ZM0 26L0 33L7 33L7 26ZM1 27L1 32L6 32L6 27ZM2 28L2 31L5 31L5 28Z" fill="#000000"/></g></g></svg>
