<?xml version="1.0" encoding="UTF-8"?>
<svg xmlns="http://www.w3.org/2000/svg" version="1.1" width="300" height="300" viewBox="0 0 300 300"><rect x="0" y="0" width="300" height="300" fill="#ffffff"/><g transform="scale(9.091)"><g transform="translate(0,0)"><path fill-rule="evenodd" d="M9 0L9 1L11 1L11 2L9 2L9 3L8 3L8 5L9 5L9 6L8 6L8 7L9 7L9 9L10 9L10 10L6 10L6 9L8 9L8 8L5 8L5 9L4 9L4 10L3 10L3 9L2 9L2 8L0 8L0 9L2 9L2 10L0 10L0 13L1 13L1 14L0 14L0 15L2 15L2 16L4 16L4 15L3 15L3 13L4 13L4 14L6 14L6 15L7 15L7 16L5 16L5 18L3 18L3 17L2 17L2 19L1 19L1 18L0 18L0 20L1 20L1 21L0 21L0 25L3 25L3 24L4 24L4 25L5 25L5 24L6 24L6 25L7 25L7 24L10 24L10 25L8 25L8 28L10 28L10 27L11 27L11 29L12 29L12 30L10 30L10 29L9 29L9 30L10 30L10 33L11 33L11 31L12 31L12 33L13 33L13 32L14 32L14 33L15 33L15 32L14 32L14 31L12 31L12 30L15 30L15 31L16 31L16 32L17 32L17 33L19 33L19 32L20 32L20 33L21 33L21 31L23 31L23 32L24 32L24 33L25 33L25 32L24 32L24 31L25 31L25 29L28 29L28 31L27 31L27 33L28 33L28 31L29 31L29 32L31 32L31 33L32 33L32 32L31 32L31 31L29 31L29 28L31 28L31 27L32 27L32 28L33 28L33 27L32 27L32 26L33 26L33 25L32 25L32 24L31 24L31 23L32 23L32 20L31 20L31 19L29 19L29 18L30 18L30 17L29 17L29 16L28 16L28 15L30 15L30 16L31 16L31 18L32 18L32 19L33 19L33 17L32 17L32 16L33 16L33 15L32 15L32 14L33 14L33 12L31 12L31 11L30 11L30 12L29 12L29 14L28 14L28 13L27 13L27 12L25 12L25 11L26 11L26 9L25 9L25 8L23 8L23 6L22 6L22 5L24 5L24 7L25 7L25 5L24 5L24 4L25 4L25 3L24 3L24 4L23 4L23 1L22 1L22 2L20 2L20 3L21 3L21 5L20 5L20 4L19 4L19 0L17 0L17 2L18 2L18 3L17 3L17 4L19 4L19 5L20 5L20 8L19 8L19 6L18 6L18 5L17 5L17 6L16 6L16 8L13 8L13 6L14 6L14 7L15 7L15 6L14 6L14 5L13 5L13 4L14 4L14 3L13 3L13 4L12 4L12 2L15 2L15 0L13 0L13 1L12 1L12 0ZM24 0L24 1L25 1L25 0ZM9 3L9 5L10 5L10 3ZM11 4L11 7L10 7L10 6L9 6L9 7L10 7L10 8L11 8L11 10L10 10L10 11L8 11L8 12L7 12L7 11L6 11L6 12L7 12L7 13L6 13L6 14L10 14L10 13L9 13L9 12L10 12L10 11L11 11L11 10L13 10L13 11L12 11L12 12L11 12L11 16L8 16L8 17L6 17L6 18L5 18L5 20L4 20L4 19L3 19L3 20L2 20L2 21L1 21L1 24L2 24L2 23L3 23L3 22L2 22L2 21L3 21L3 20L4 20L4 24L5 24L5 20L7 20L7 21L6 21L6 22L7 22L7 23L6 23L6 24L7 24L7 23L9 23L9 22L10 22L10 20L11 20L11 19L12 19L12 21L11 21L11 23L10 23L10 24L12 24L12 23L13 23L13 22L12 22L12 21L15 21L15 20L16 20L16 23L14 23L14 25L11 25L11 26L13 26L13 27L12 27L12 29L15 29L15 28L16 28L16 27L17 27L17 28L18 28L18 29L16 29L16 31L17 31L17 32L19 32L19 30L18 30L18 29L19 29L19 28L20 28L20 31L21 31L21 30L22 30L22 29L23 29L23 30L24 30L24 27L23 27L23 26L22 26L22 24L23 24L23 25L24 25L24 24L27 24L27 20L28 20L28 19L27 19L27 18L26 18L26 19L23 19L23 18L22 18L22 17L24 17L24 18L25 18L25 17L27 17L27 15L28 15L28 14L27 14L27 15L26 15L26 14L25 14L25 13L24 13L24 14L23 14L23 16L22 16L22 12L23 12L23 11L24 11L24 10L25 10L25 9L24 9L24 10L23 10L23 11L20 11L20 10L19 10L19 9L17 9L17 8L18 8L18 6L17 6L17 8L16 8L16 11L15 11L15 10L14 10L14 9L12 9L12 6L13 6L13 5L12 5L12 4ZM21 6L21 8L20 8L20 9L21 9L21 10L22 10L22 6ZM28 8L28 9L27 9L27 10L28 10L28 11L29 11L29 9L30 9L30 8ZM31 9L31 10L32 10L32 9ZM4 10L4 11L2 11L2 12L1 12L1 13L3 13L3 12L4 12L4 13L5 13L5 12L4 12L4 11L5 11L5 10ZM17 10L17 11L18 11L18 10ZM14 11L14 14L13 14L13 13L12 13L12 14L13 14L13 15L12 15L12 17L14 17L14 20L15 20L15 19L16 19L16 18L17 18L17 19L20 19L20 20L21 20L21 19L22 19L22 20L23 20L23 19L22 19L22 18L20 18L20 17L21 17L21 16L20 16L20 17L18 17L18 16L17 16L17 14L21 14L21 12L18 12L18 13L17 13L17 14L16 14L16 13L15 13L15 11ZM30 12L30 15L31 15L31 16L32 16L32 15L31 15L31 12ZM14 14L14 15L13 15L13 16L14 16L14 17L15 17L15 16L16 16L16 17L17 17L17 18L18 18L18 17L17 17L17 16L16 16L16 15L15 15L15 14ZM24 15L24 17L25 17L25 15ZM9 17L9 18L6 18L6 19L7 19L7 20L8 20L8 19L10 19L10 18L11 18L11 17ZM28 17L28 18L29 18L29 17ZM12 18L12 19L13 19L13 18ZM17 20L17 21L19 21L19 22L18 22L18 25L17 25L17 26L18 26L18 28L19 28L19 26L20 26L20 27L21 27L21 26L20 26L20 24L21 24L21 23L22 23L22 21L21 21L21 22L20 22L20 21L19 21L19 20ZM29 20L29 21L30 21L30 22L28 22L28 23L30 23L30 22L31 22L31 20ZM23 21L23 22L24 22L24 21ZM25 21L25 22L26 22L26 21ZM19 22L19 24L20 24L20 22ZM23 23L23 24L24 24L24 23ZM15 24L15 27L16 27L16 24ZM30 24L30 27L31 27L31 26L32 26L32 25L31 25L31 24ZM18 25L18 26L19 26L19 25ZM25 25L25 28L28 28L28 25ZM26 26L26 27L27 27L27 26ZM22 27L22 28L23 28L23 27ZM30 29L30 30L31 30L31 29ZM17 30L17 31L18 31L18 30ZM32 30L32 31L33 31L33 30ZM8 31L8 33L9 33L9 31ZM0 0L0 7L7 7L7 0ZM1 1L1 6L6 6L6 1ZM2 2L2 5L5 5L5 2ZM26 0L26 7L33 7L33 0ZM27 1L27 6L32 6L32 1ZM28 2L28 5L31 5L31 2ZM0 26L0 33L7 33L7 26ZM1 27L1 32L6 32L6 27ZM2 28L2 31L5 31L5 28Z" fill="#000000"/></g></g></svg>
