<?xml version="1.0" encoding="UTF-8"?>
<svg xmlns="http://www.w3.org/2000/svg" version="1.1" width="300" height="300" viewBox="0 0 300 300"><rect x="0" y="0" width="300" height="300" fill="#ffffff"/><g transform="scale(9.091)"><g transform="translate(0,0)"><path fill-rule="evenodd" d="M9 0L9 1L8 1L8 2L9 2L9 3L8 3L8 4L10 4L10 7L11 7L11 4L12 4L12 5L13 5L13 6L12 6L12 9L13 9L13 8L14 8L14 9L17 9L17 10L20 10L20 12L19 12L19 13L18 13L18 12L17 12L17 11L16 11L16 10L15 10L15 11L14 11L14 12L15 12L15 13L12 13L12 11L13 11L13 10L11 10L11 11L10 11L10 9L11 9L11 8L6 8L6 9L5 9L5 8L0 8L0 9L1 9L1 10L2 10L2 9L4 9L4 11L3 11L3 12L2 12L2 11L0 11L0 14L1 14L1 13L2 13L2 14L4 14L4 11L5 11L5 12L6 12L6 13L5 13L5 15L7 15L7 14L6 14L6 13L7 13L7 12L8 12L8 11L7 11L7 10L6 10L6 9L8 9L8 10L9 10L9 14L11 14L11 13L12 13L12 14L13 14L13 15L12 15L12 17L13 17L13 16L14 16L14 17L19 17L19 18L15 18L15 19L14 19L14 20L15 20L15 21L12 21L12 19L13 19L13 18L11 18L11 19L9 19L9 18L8 18L8 19L7 19L7 18L6 18L6 19L7 19L7 20L5 20L5 24L6 24L6 25L7 25L7 24L8 24L8 27L9 27L9 28L8 28L8 33L10 33L10 32L11 32L11 29L12 29L12 30L13 30L13 31L12 31L12 33L13 33L13 32L14 32L14 33L16 33L16 32L17 32L17 33L18 33L18 32L17 32L17 30L15 30L15 29L18 29L18 30L20 30L20 32L19 32L19 33L20 33L20 32L24 32L24 33L25 33L25 32L24 32L24 31L27 31L27 30L29 30L29 32L31 32L31 33L32 33L32 32L31 32L31 31L30 31L30 30L33 30L33 27L32 27L32 26L33 26L33 24L32 24L32 26L31 26L31 27L30 27L30 25L29 25L29 24L31 24L31 23L32 23L32 22L33 22L33 21L32 21L32 20L31 20L31 19L32 19L32 18L33 18L33 17L32 17L32 16L31 16L31 15L32 15L32 14L33 14L33 13L31 13L31 15L30 15L30 13L29 13L29 12L28 12L28 11L29 11L29 10L28 10L28 11L27 11L27 12L28 12L28 13L29 13L29 14L28 14L28 16L27 16L27 13L23 13L23 14L21 14L21 15L20 15L20 17L19 17L19 15L18 15L18 16L17 16L17 15L16 15L16 14L15 14L15 13L18 13L18 14L20 14L20 12L22 12L22 11L23 11L23 12L24 12L24 11L23 11L23 10L25 10L25 11L26 11L26 10L27 10L27 9L28 9L28 8L27 8L27 9L26 9L26 8L25 8L25 4L23 4L23 3L25 3L25 0L21 0L21 1L24 1L24 2L23 2L23 3L22 3L22 2L19 2L19 1L20 1L20 0L19 0L19 1L18 1L18 0L15 0L15 1L18 1L18 2L19 2L19 3L17 3L17 2L16 2L16 3L17 3L17 4L19 4L19 5L20 5L20 7L21 7L21 8L19 8L19 6L18 6L18 8L14 8L14 7L15 7L15 6L16 6L16 7L17 7L17 6L16 6L16 4L12 4L12 2L13 2L13 1L11 1L11 2L10 2L10 0ZM14 2L14 3L15 3L15 2ZM10 3L10 4L11 4L11 3ZM19 3L19 4L22 4L22 5L21 5L21 7L22 7L22 6L23 6L23 8L21 8L21 9L20 9L20 10L21 10L21 9L25 9L25 8L24 8L24 5L23 5L23 4L22 4L22 3ZM8 5L8 7L9 7L9 5ZM13 6L13 7L14 7L14 6ZM29 8L29 9L30 9L30 8ZM31 8L31 10L33 10L33 9L32 9L32 8ZM5 10L5 11L6 11L6 12L7 12L7 11L6 11L6 10ZM30 11L30 12L31 12L31 11ZM10 12L10 13L11 13L11 12ZM23 14L23 16L21 16L21 17L20 17L20 18L19 18L19 21L17 21L17 20L18 20L18 19L16 19L16 21L15 21L15 22L16 22L16 21L17 21L17 22L18 22L18 23L14 23L14 24L13 24L13 25L12 25L12 23L13 23L13 22L12 22L12 21L11 21L11 20L9 20L9 19L8 19L8 20L9 20L9 21L6 21L6 22L7 22L7 23L6 23L6 24L7 24L7 23L8 23L8 24L9 24L9 26L10 26L10 28L11 28L11 26L13 26L13 27L12 27L12 29L15 29L15 28L14 28L14 27L15 27L15 26L16 26L16 27L17 27L17 28L18 28L18 29L20 29L20 30L21 30L21 29L23 29L23 30L22 30L22 31L24 31L24 27L22 27L22 26L21 26L21 25L23 25L23 26L24 26L24 25L23 25L23 23L24 23L24 24L28 24L28 23L30 23L30 22L31 22L31 20L29 20L29 21L27 21L27 19L26 19L26 18L25 18L25 19L24 19L24 18L22 18L22 19L23 19L23 20L21 20L21 19L20 19L20 18L21 18L21 17L23 17L23 16L24 16L24 17L27 17L27 18L28 18L28 19L29 19L29 17L30 17L30 19L31 19L31 16L30 16L30 15L29 15L29 17L27 17L27 16L26 16L26 14L25 14L25 16L24 16L24 14ZM0 15L0 17L1 17L1 18L0 18L0 19L1 19L1 21L0 21L0 25L1 25L1 21L2 21L2 23L4 23L4 22L3 22L3 21L4 21L4 20L3 20L3 19L5 19L5 18L2 18L2 17L4 17L4 16L3 16L3 15L2 15L2 17L1 17L1 15ZM14 15L14 16L16 16L16 15ZM6 16L6 17L7 17L7 16ZM9 16L9 17L11 17L11 16ZM2 20L2 21L3 21L3 20ZM10 21L10 23L9 23L9 22L8 22L8 23L9 23L9 24L10 24L10 23L11 23L11 21ZM19 21L19 22L21 22L21 23L20 23L20 25L19 25L19 24L17 24L17 25L16 25L16 24L14 24L14 25L16 25L16 26L18 26L18 28L19 28L19 26L20 26L20 25L21 25L21 24L22 24L22 23L23 23L23 22L27 22L27 23L28 23L28 22L27 22L27 21ZM29 21L29 22L30 22L30 21ZM3 24L3 25L4 25L4 24ZM10 25L10 26L11 26L11 25ZM18 25L18 26L19 26L19 25ZM25 25L25 28L28 28L28 25ZM26 26L26 27L27 27L27 26ZM20 27L20 29L21 29L21 28L22 28L22 27ZM31 27L31 28L29 28L29 30L30 30L30 29L32 29L32 27ZM25 29L25 30L27 30L27 29ZM9 30L9 31L10 31L10 30ZM14 31L14 32L15 32L15 31ZM27 32L27 33L28 33L28 32ZM0 0L0 7L7 7L7 0ZM1 1L1 6L6 6L6 1ZM2 2L2 5L5 5L5 2ZM26 0L26 7L33 7L33 0ZM27 1L27 6L32 6L32 1ZM28 2L28 5L31 5L31 2ZM0 26L0 33L7 33L7 26ZM1 27L1 32L6 32L6 27ZM2 28L2 31L5 31L5 28Z" fill="#000000"/></g></g></svg>
