<?xml version="1.0" encoding="UTF-8"?>
<svg xmlns="http://www.w3.org/2000/svg" version="1.1" width="300" height="300" viewBox="0 0 300 300"><rect x="0" y="0" width="300" height="300" fill="#ffffff"/><g transform="scale(10.345)"><g transform="translate(0,0)"><path fill-rule="evenodd" d="M8 0L8 1L9 1L9 2L8 2L8 5L9 5L9 4L11 4L11 5L10 5L10 10L8 10L8 9L9 9L9 8L8 8L8 9L7 9L7 8L6 8L6 9L7 9L7 10L6 10L6 11L5 11L5 9L4 9L4 8L0 8L0 10L1 10L1 11L0 11L0 14L1 14L1 13L2 13L2 17L3 17L3 16L4 16L4 17L5 17L5 18L6 18L6 19L5 19L5 21L7 21L7 20L6 20L6 19L8 19L8 20L9 20L9 21L8 21L8 22L9 22L9 23L11 23L11 24L9 24L9 25L8 25L8 29L12 29L12 28L14 28L14 27L15 27L15 26L16 26L16 27L17 27L17 26L18 26L18 27L19 27L19 28L18 28L18 29L19 29L19 28L20 28L20 29L21 29L21 28L24 28L24 29L25 29L25 27L22 27L22 26L21 26L21 27L20 27L20 25L24 25L24 26L25 26L25 25L27 25L27 24L26 24L26 23L27 23L27 21L28 21L28 22L29 22L29 19L28 19L28 16L29 16L29 13L27 13L27 12L29 12L29 11L28 11L28 10L29 10L29 8L28 8L28 9L27 9L27 8L24 8L24 9L22 9L22 8L20 8L20 7L21 7L21 0L18 0L18 1L20 1L20 4L19 4L19 3L17 3L17 1L16 1L16 0L15 0L15 1L16 1L16 2L15 2L15 3L14 3L14 5L13 5L13 3L12 3L12 4L11 4L11 2L14 2L14 0L12 0L12 1L11 1L11 0L10 0L10 1L9 1L9 0ZM16 3L16 4L17 4L17 5L14 5L14 6L13 6L13 5L12 5L12 6L11 6L11 8L12 8L12 6L13 6L13 8L14 8L14 9L15 9L15 10L14 10L14 11L11 11L11 13L9 13L9 14L7 14L7 13L8 13L8 12L9 12L9 11L6 11L6 12L7 12L7 13L6 13L6 14L5 14L5 16L7 16L7 17L6 17L6 18L7 18L7 17L9 17L9 16L10 16L10 17L11 17L11 19L12 19L12 20L11 20L11 21L10 21L10 22L11 22L11 23L14 23L14 22L15 22L15 23L16 23L16 22L17 22L17 24L18 24L18 22L20 22L20 21L19 21L19 20L23 20L23 18L24 18L24 20L25 20L25 23L26 23L26 18L27 18L27 15L28 15L28 14L27 14L27 15L26 15L26 16L25 16L25 17L24 17L24 16L23 16L23 14L22 14L22 13L23 13L23 12L24 12L24 15L25 15L25 11L24 11L24 10L21 10L21 9L20 9L20 10L19 10L19 8L18 8L18 11L17 11L17 7L18 7L18 5L19 5L19 4L17 4L17 3ZM8 6L8 7L9 7L9 6ZM14 6L14 7L15 7L15 6ZM16 6L16 7L17 7L17 6ZM19 6L19 7L20 7L20 6ZM1 9L1 10L2 10L2 11L1 11L1 12L2 12L2 11L3 11L3 9ZM11 9L11 10L12 10L12 9ZM26 9L26 10L27 10L27 9ZM15 11L15 12L14 12L14 14L13 14L13 12L12 12L12 13L11 13L11 14L10 14L10 16L12 16L12 17L13 17L13 16L12 16L12 14L13 14L13 15L14 15L14 18L13 18L13 21L15 21L15 20L17 20L17 21L18 21L18 19L16 19L16 17L15 17L15 16L17 16L17 15L18 15L18 16L19 16L19 17L18 17L18 18L19 18L19 17L21 17L21 18L22 18L22 17L21 17L21 15L22 15L22 14L20 14L20 13L19 13L19 12L20 12L20 11L19 11L19 12L17 12L17 11ZM21 11L21 13L22 13L22 11ZM26 11L26 12L27 12L27 11ZM4 12L4 13L3 13L3 15L4 15L4 13L5 13L5 12ZM16 13L16 14L14 14L14 15L17 15L17 13ZM6 14L6 15L7 15L7 14ZM18 14L18 15L19 15L19 16L20 16L20 15L19 15L19 14ZM0 15L0 16L1 16L1 15ZM8 15L8 16L9 16L9 15ZM0 18L0 19L1 19L1 18ZM8 18L8 19L9 19L9 20L10 20L10 18ZM2 19L2 20L1 20L1 21L2 21L2 20L3 20L3 21L4 21L4 19ZM27 19L27 20L28 20L28 19ZM21 21L21 24L24 24L24 21ZM22 22L22 23L23 23L23 22ZM19 23L19 25L20 25L20 23ZM28 23L28 24L29 24L29 23ZM12 24L12 26L11 26L11 25L9 25L9 26L10 26L10 27L9 27L9 28L10 28L10 27L11 27L11 28L12 28L12 26L13 26L13 27L14 27L14 26L15 26L15 24ZM13 25L13 26L14 26L14 25ZM16 25L16 26L17 26L17 25ZM28 25L28 27L27 27L27 29L28 29L28 27L29 27L29 25ZM0 0L0 7L7 7L7 0ZM1 1L1 6L6 6L6 1ZM2 2L2 5L5 5L5 2ZM22 0L22 7L29 7L29 0ZM23 1L23 6L28 6L28 1ZM24 2L24 5L27 5L27 2ZM0 22L0 29L7 29L7 22ZM1 23L1 28L6 28L6 23ZM2 24L2 27L5 27L5 24Z" fill="#000000"/></g></g></svg>
