<?xml version="1.0" encoding="UTF-8"?>
<svg xmlns="http://www.w3.org/2000/svg" version="1.1" width="300" height="300" viewBox="0 0 300 300"><rect x="0" y="0" width="300" height="300" fill="#ffffff"/><g transform="scale(10.345)"><g transform="translate(0,0)"><path fill-rule="evenodd" d="M10 0L10 2L11 2L11 0ZM12 0L12 1L13 1L13 2L12 2L12 4L13 4L13 3L14 3L14 4L17 4L17 5L15 5L15 6L14 6L14 8L15 8L15 9L12 9L12 7L13 7L13 5L11 5L11 6L10 6L10 4L11 4L11 3L8 3L8 4L9 4L9 5L8 5L8 7L9 7L9 8L6 8L6 9L5 9L5 8L0 8L0 9L5 9L5 10L4 10L4 11L3 11L3 10L0 10L0 11L3 11L3 12L1 12L1 13L3 13L3 15L2 15L2 16L1 16L1 17L0 17L0 21L1 21L1 17L2 17L2 20L3 20L3 21L4 21L4 19L3 19L3 18L5 18L5 19L7 19L7 18L6 18L6 17L8 17L8 18L10 18L10 19L9 19L9 20L11 20L11 18L10 18L10 17L12 17L12 18L13 18L13 19L12 19L12 21L13 21L13 20L14 20L14 21L19 21L19 22L18 22L18 24L17 24L17 23L16 23L16 22L15 22L15 23L14 23L14 24L15 24L15 25L12 25L12 23L13 23L13 22L11 22L11 21L10 21L10 22L9 22L9 21L8 21L8 20L6 20L6 21L8 21L8 23L9 23L9 24L8 24L8 29L9 29L9 28L10 28L10 26L11 26L11 25L12 25L12 26L13 26L13 27L12 27L12 29L13 29L13 28L14 28L14 29L20 29L20 28L23 28L23 29L24 29L24 28L25 28L25 26L26 26L26 27L27 27L27 28L26 28L26 29L27 29L27 28L28 28L28 26L29 26L29 25L27 25L27 24L28 24L28 22L29 22L29 21L28 21L28 22L26 22L26 21L27 21L27 20L25 20L25 19L24 19L24 20L22 20L22 19L21 19L21 18L20 18L20 16L21 16L21 17L22 17L22 18L23 18L23 17L24 17L24 18L26 18L26 19L28 19L28 20L29 20L29 19L28 19L28 18L29 18L29 17L28 17L28 18L26 18L26 17L27 17L27 16L29 16L29 15L27 15L27 16L25 16L25 15L24 15L24 14L26 14L26 13L27 13L27 14L29 14L29 13L27 13L27 12L29 12L29 11L28 11L28 10L29 10L29 9L28 9L28 8L27 8L27 9L28 9L28 10L27 10L27 12L25 12L25 11L26 11L26 10L25 10L25 9L26 9L26 8L25 8L25 9L24 9L24 8L23 8L23 9L22 9L22 8L21 8L21 9L18 9L18 8L17 8L17 5L20 5L20 4L21 4L21 1L20 1L20 0L19 0L19 1L18 1L18 0L17 0L17 1L16 1L16 0L15 0L15 1L14 1L14 0ZM8 1L8 2L9 2L9 1ZM17 1L17 3L18 3L18 1ZM19 1L19 2L20 2L20 1ZM14 2L14 3L15 3L15 2ZM19 3L19 4L20 4L20 3ZM9 6L9 7L10 7L10 6ZM11 6L11 7L12 7L12 6ZM15 6L15 8L16 8L16 6ZM18 6L18 7L19 7L19 8L20 8L20 7L21 7L21 6L20 6L20 7L19 7L19 6ZM10 8L10 9L6 9L6 10L5 10L5 11L4 11L4 12L5 12L5 16L3 16L3 17L6 17L6 16L11 16L11 14L13 14L13 15L12 15L12 17L15 17L15 18L16 18L16 17L17 17L17 19L16 19L16 20L19 20L19 21L20 21L20 20L21 20L21 19L20 19L20 18L19 18L19 17L17 17L17 16L18 16L18 15L19 15L19 16L20 16L20 14L18 14L18 13L21 13L21 10L22 10L22 13L23 13L23 14L24 14L24 13L25 13L25 12L24 12L24 13L23 13L23 10L24 10L24 11L25 11L25 10L24 10L24 9L23 9L23 10L22 10L22 9L21 9L21 10L18 10L18 9L15 9L15 10L17 10L17 12L18 12L18 13L14 13L14 12L15 12L15 11L14 11L14 12L13 12L13 13L12 13L12 11L13 11L13 10L12 10L12 9L11 9L11 8ZM10 9L10 11L11 11L11 9ZM6 10L6 11L7 11L7 12L6 12L6 13L8 13L8 14L10 14L10 13L11 13L11 12L9 12L9 11L8 11L8 10ZM19 11L19 12L20 12L20 11ZM8 12L8 13L9 13L9 12ZM0 14L0 15L1 15L1 14ZM6 14L6 15L7 15L7 14ZM15 14L15 15L14 15L14 16L15 16L15 17L16 17L16 16L17 16L17 15L16 15L16 14ZM21 14L21 16L22 16L22 17L23 17L23 15L22 15L22 14ZM15 15L15 16L16 16L16 15ZM24 16L24 17L25 17L25 16ZM14 19L14 20L15 20L15 19ZM19 19L19 20L20 20L20 19ZM21 21L21 24L24 24L24 21ZM22 22L22 23L23 23L23 22ZM25 22L25 24L27 24L27 23L26 23L26 22ZM15 23L15 24L16 24L16 23ZM19 23L19 25L18 25L18 26L17 26L17 25L15 25L15 26L16 26L16 27L17 27L17 28L18 28L18 26L19 26L19 28L20 28L20 27L22 27L22 26L25 26L25 25L22 25L22 26L21 26L21 25L20 25L20 23ZM9 24L9 25L10 25L10 24ZM19 25L19 26L20 26L20 25ZM26 25L26 26L27 26L27 25ZM14 27L14 28L15 28L15 27ZM0 0L0 7L7 7L7 0ZM1 1L1 6L6 6L6 1ZM2 2L2 5L5 5L5 2ZM22 0L22 7L29 7L29 0ZM23 1L23 6L28 6L28 1ZM24 2L24 5L27 5L27 2ZM0 22L0 29L7 29L7 22ZM1 23L1 28L6 28L6 23ZM2 24L2 27L5 27L5 24Z" fill="#000000"/></g></g></svg>
