<?xml version="1.0" encoding="UTF-8"?>
<svg xmlns="http://www.w3.org/2000/svg" version="1.1" width="300" height="300" viewBox="0 0 300 300"><rect x="0" y="0" width="300" height="300" fill="#ffffff"/><g transform="scale(10.345)"><g transform="translate(0,0)"><path fill-rule="evenodd" d="M8 0L8 1L9 1L9 2L10 2L10 3L11 3L11 1L13 1L13 0L11 0L11 1L9 1L9 0ZM14 0L14 1L16 1L16 3L17 3L17 4L18 4L18 5L16 5L16 8L15 8L15 11L16 11L16 12L15 12L15 13L14 13L14 7L15 7L15 6L14 6L14 7L13 7L13 5L12 5L12 4L13 4L13 2L12 2L12 4L11 4L11 5L10 5L10 4L9 4L9 5L10 5L10 8L9 8L9 6L8 6L8 8L9 8L9 9L8 9L8 10L10 10L10 11L9 11L9 12L8 12L8 14L6 14L6 13L7 13L7 12L6 12L6 11L7 11L7 10L6 10L6 11L5 11L5 10L2 10L2 11L1 11L1 10L0 10L0 11L1 11L1 12L0 12L0 13L1 13L1 12L2 12L2 11L3 11L3 12L6 12L6 13L3 13L3 14L6 14L6 15L7 15L7 16L3 16L3 15L2 15L2 14L1 14L1 15L0 15L0 21L2 21L2 20L3 20L3 18L1 18L1 16L3 16L3 17L5 17L5 18L4 18L4 19L5 19L5 20L4 20L4 21L5 21L5 20L6 20L6 21L7 21L7 20L9 20L9 21L8 21L8 22L9 22L9 23L10 23L10 24L8 24L8 26L9 26L9 27L8 27L8 29L9 29L9 27L10 27L10 28L11 28L11 29L13 29L13 28L15 28L15 29L17 29L17 27L16 27L16 24L18 24L18 25L19 25L19 26L20 26L20 25L25 25L25 26L23 26L23 27L21 27L21 28L20 28L20 27L18 27L18 29L19 29L19 28L20 28L20 29L23 29L23 28L25 28L25 27L26 27L26 28L27 28L27 27L28 27L28 28L29 28L29 23L28 23L28 26L27 26L27 25L25 25L25 23L27 23L27 22L25 22L25 20L26 20L26 21L29 21L29 18L28 18L28 19L26 19L26 18L25 18L25 17L26 17L26 16L27 16L27 17L28 17L28 16L29 16L29 11L28 11L28 9L29 9L29 8L28 8L28 9L26 9L26 10L25 10L25 9L23 9L23 8L22 8L22 9L23 9L23 10L24 10L24 11L21 11L21 8L20 8L20 7L21 7L21 5L20 5L20 4L21 4L21 2L20 2L20 1L19 1L19 0ZM17 1L17 3L19 3L19 4L20 4L20 3L19 3L19 1ZM14 4L14 5L15 5L15 4ZM11 5L11 7L12 7L12 9L10 9L10 10L12 10L12 11L13 11L13 10L12 10L12 9L13 9L13 7L12 7L12 5ZM18 5L18 6L17 6L17 8L19 8L19 7L20 7L20 5ZM18 6L18 7L19 7L19 6ZM0 8L0 9L2 9L2 8ZM3 8L3 9L5 9L5 8ZM6 8L6 9L7 9L7 8ZM16 9L16 11L17 11L17 10L18 10L18 11L20 11L20 12L21 12L21 11L20 11L20 10L19 10L19 9ZM26 10L26 11L25 11L25 12L24 12L24 13L27 13L27 12L28 12L28 11L27 11L27 10ZM10 12L10 13L9 13L9 14L8 14L8 16L7 16L7 17L6 17L6 18L7 18L7 19L6 19L6 20L7 20L7 19L8 19L8 18L10 18L10 17L14 17L14 16L16 16L16 15L15 15L15 14L14 14L14 15L12 15L12 16L10 16L10 14L13 14L13 13L11 13L11 12ZM16 12L16 14L18 14L18 13L19 13L19 14L21 14L21 15L19 15L19 16L18 16L18 15L17 15L17 17L19 17L19 16L21 16L21 15L23 15L23 16L22 16L22 18L21 18L21 17L20 17L20 20L24 20L24 17L25 17L25 16L26 16L26 14L25 14L25 16L24 16L24 15L23 15L23 14L22 14L22 13L19 13L19 12ZM8 16L8 17L9 17L9 16ZM23 16L23 17L24 17L24 16ZM12 18L12 19L9 19L9 20L11 20L11 21L9 21L9 22L10 22L10 23L11 23L11 26L10 26L10 27L11 27L11 28L12 28L12 27L14 27L14 26L15 26L15 25L13 25L13 24L14 24L14 21L12 21L12 19L13 19L13 20L14 20L14 19L15 19L15 20L16 20L16 21L17 21L17 22L16 22L16 23L15 23L15 24L16 24L16 23L17 23L17 22L18 22L18 23L19 23L19 24L20 24L20 23L19 23L19 21L17 21L17 20L18 20L18 19L19 19L19 18L16 18L16 19L15 19L15 18ZM22 18L22 19L23 19L23 18ZM21 21L21 24L24 24L24 21ZM12 22L12 23L13 23L13 22ZM22 22L22 23L23 23L23 22ZM12 25L12 26L13 26L13 25ZM26 26L26 27L27 27L27 26ZM15 27L15 28L16 28L16 27ZM0 0L0 7L7 7L7 0ZM1 1L1 6L6 6L6 1ZM2 2L2 5L5 5L5 2ZM22 0L22 7L29 7L29 0ZM23 1L23 6L28 6L28 1ZM24 2L24 5L27 5L27 2ZM0 22L0 29L7 29L7 22ZM1 23L1 28L6 28L6 23ZM2 24L2 27L5 27L5 24Z" fill="#000000"/></g></g></svg>
