<svg xmlns="http://www.w3.org/2000/svg" width="50" height="50" viewBox="0 0 99.362 96.73">
  <path id="restaurant" d="M158.026,162.459a48.307,48.307,0,0,0,.256-4.94c0-24.613-19.45-44.742-44.063-46.289a5.27,5.27,0,0,0,.045-.612,3.093,3.093,0,0,0-6.187,0,2.715,2.715,0,0,0,.067.612c-24.591,1.547-44.074,21.676-44.074,46.289,0,1.658.122,3.327.256,4.94ZM73.638,145.8c1.5-8.4,5.675-14.977,9.97-16.424l.612,3.583c-4.05,1.914-7.811,8.212-9.224,16.079a36.886,36.886,0,0,0-.567,5.475l-1.324-.467A36.11,36.11,0,0,1,73.638,145.8Zm85.245,19.139h-95.4a.971.971,0,0,0-.979.968v2.915a.978.978,0,0,0,.979.968h95.4a.971.971,0,0,0,.979-.968v-2.915A.971.971,0,0,0,158.883,164.94ZM109.835,89.9a5.817,5.817,0,0,0,.211,8.534c.712.567,1.447.768,2.136.045a1.393,1.393,0,0,0-.122-2.114c-1.58-1.769-1.513-3.071.178-4.762,2.8-2.8,2.7-6.109-.122-8.935a3.838,3.838,0,0,1-1.09-2.381c0-.757.746-1.5,1.068-2.292a2.777,2.777,0,0,0,.323-1.613c-.122-.423-.734-.7-1.179-1.079a10.7,10.7,0,0,0-1.324.846,5.732,5.732,0,0,0-.011,8.434C111.949,86.683,111.938,87.807,109.835,89.9Zm-9.18,5.207a5.886,5.886,0,0,1-1.324,1.669,5.777,5.777,0,0,0-.245,8.034A10.3,10.3,0,0,0,100.7,106c.49-.389,1.146-.645,1.191-1a2.519,2.519,0,0,0-.412-1.8c-1.3-1.6-1.324-3.2.078-4.573,3-2.915,3.027-6.142.022-9.08a2.923,2.923,0,0,1-1.013-2.915,5.224,5.224,0,0,1,1.09-1.8c.579-.712.657-1.536-.011-2.014-.445-.323-1.291-.134-1.947-.056-.256.033-.49.389-.69.634a5.749,5.749,0,0,0,.567,8.178C100.633,92.6,101.222,93.715,100.655,95.106Zm19.773,1.558a5.839,5.839,0,0,0,.033,8.534c.712.668,1.524.857,2.225.111.657-.69.467-1.435-.167-2.125-1.469-1.636-1.413-3.082.1-4.618,2.915-2.938,2.9-6.087-.022-9.024-1.469-1.48-1.536-3.027-.145-4.529a1.517,1.517,0,0,0,.2-2.237c-.545-.657-1.513-.523-2.326.256a5.825,5.825,0,0,0,.122,8.457c1.947,1.88,1.936,3.26-.022,5.174Z" transform="translate(-61.5 -74.062)" fill="none" stroke="#707070" stroke-width="2"/>
</svg>
