<svg xmlns="http://www.w3.org/2000/svg" width="50" height="50" viewBox="0 0 109.932 107.095">
  <path id="pizza" d="M121.534,85.049a41.882,41.882,0,0,0-20.479,1.6l13.435,36.167,24.973-30.17A42.054,42.054,0,0,0,121.534,85.049Zm-10.8,9.913c-.69.48-1.133-.788-1.244-1.207a18.394,18.394,0,0,1-.542-3.46c-.049-.53-.049-1.909.739-1.983.763-.062,1.047,1.293,1.1,1.8a12.038,12.038,0,0,0,.382,2.475C111.337,93.225,111.387,94.506,110.734,94.961Zm5.911,17.6a2.867,2.867,0,0,1,.961-5.652,2.867,2.867,0,1,1-.961,5.652ZM122,98.163a4.309,4.309,0,1,1-3.534-4.975A4.307,4.307,0,0,1,122,98.163Zm1.281-8.066c-.406,2.426-1.7-.616-1.5-1.773C122.186,85.9,123.479,88.94,123.282,90.1Zm6.551,7.93a2.867,2.867,0,1,1,3.313-2.352A2.857,2.857,0,0,1,129.833,98.028ZM158.464,132.2l7.487,1.268A51.947,51.947,0,0,0,148.7,87.647l-4.827,5.837A44.315,44.315,0,0,1,158.464,132.2Zm4.347,8.435a44.375,44.375,0,0,1-26.549,31.746l2.648,7.118a51.959,51.959,0,0,0,31.377-37.6l-7.475-1.268ZM70.491,121.141,63,119.873A52,52,0,0,0,79.628,165.14l4.839-5.849A44.322,44.322,0,0,1,70.491,121.141ZM107.077,170.4a44.048,44.048,0,0,1-19.715-8.645L82.522,167.6a51.844,51.844,0,0,0,47.853,8.509l-2.648-7.118A44.2,44.2,0,0,1,107.077,170.4Zm14.814-87.443a44.008,44.008,0,0,1,19.025,8.152l4.839-5.849A51.757,51.757,0,0,0,97.779,77.5l2.648,7.118A44.085,44.085,0,0,1,121.891,82.955ZM96.881,86l-2.648-7.118a51.937,51.937,0,0,0-30.6,37.25l7.487,1.268A44.289,44.289,0,0,1,96.881,86Zm45.538,9.039-25.01,30.207,38.962,6.6A42.159,42.159,0,0,0,142.418,95.035Zm-3.337,12.659a4.3,4.3,0,1,1,3.522,4.975A4.3,4.3,0,0,1,139.081,107.694Zm-7.561,14.666a2.867,2.867,0,1,1,3.3-2.34A2.845,2.845,0,0,1,131.52,122.361Zm11.785-.887a6.138,6.138,0,0,1-2.586,2.832c-1.589.9-2.414-2.783-1.01-3.583a3.492,3.492,0,0,0,1.564-1.749,1.014,1.014,0,0,1,1.773-.172A2.585,2.585,0,0,1,143.305,121.474Zm5.234,5.123a2.867,2.867,0,1,1,.961-5.652,2.867,2.867,0,0,1-.961,5.652Zm-21.673,40.44-13.644-36.721L88.605,160.042a42.313,42.313,0,0,0,38.26,6.994Zm-7.795-4.138c.419-2.414,1.552.727,1.379,1.786C120.031,167.11,118.886,163.97,119.071,162.9Zm-7.7-20.811a2.867,2.867,0,1,1-3.313,2.34A2.882,2.882,0,0,1,111.374,142.088Zm1.071,11.083c-.3,1.773-1.182-1.847-1.059-2.6C111.682,148.824,112.569,152.432,112.446,153.171Zm-15.023,6.354a2.867,2.867,0,1,1,3.3-2.34A2.853,2.853,0,0,1,97.422,159.525Zm7.93-7.807c-.406,2.451-2.18-.32-1.933-1.749C103.838,147.531,105.6,150.3,105.353,151.718Zm.653,7.832a4.315,4.315,0,1,1,3.546,4.975A4.32,4.32,0,0,1,106.005,159.549Zm-32.78-41.794,37.706,6.391L97.509,88.029A42.2,42.2,0,0,0,73.225,117.755Zm5.652-3.682c-.419,2.438-1.835-.53-1.625-1.773C77.658,109.874,79.087,112.842,78.877,114.073Zm15.664-8.411c.419-2.438,2.241.271,1.995,1.736C96.129,109.849,94.295,107.128,94.541,105.662Zm7.376,10.135a2.861,2.861,0,1,1-2.34-3.3A2.853,2.853,0,0,1,101.917,115.8ZM95.489,93.668a2.867,2.867,0,1,1-.96,5.652,2.867,2.867,0,0,1,.96-5.652Zm-6.477,9.839a4.308,4.308,0,1,1-4.963,3.522A4.307,4.307,0,0,1,89.012,103.508Zm-3.288,54.072L110.3,127.89,72.585,121.5A42.163,42.163,0,0,0,85.724,157.579ZM82.965,138.32c-.3,1.749-1.158-1.859-1.034-2.586C82.214,133.973,83.076,137.593,82.965,138.32Zm5.935-5.837a4.3,4.3,0,1,1,3.522,4.975A4.29,4.29,0,0,1,88.9,132.483Zm-2.475,12.08a2.873,2.873,0,1,1-3.313,2.352A2.857,2.857,0,0,1,86.426,144.563Zm-5.652-18.324a2.867,2.867,0,1,1-.96,5.652,2.867,2.867,0,0,1,.96-5.652ZM160.7,140.29l-38.962-6.6,13.669,36.758A42.167,42.167,0,0,0,160.7,140.29Zm-5.886,2.537c.419-2.438,2.389.185,2.118,1.736C156.53,147,154.56,144.366,154.819,142.827Zm-19.7,6.773c.419-2.438,2.463.148,2.192,1.724C136.889,153.774,134.845,151.188,135.116,149.6Zm-1.33-2.734a4.3,4.3,0,1,1,4.975-3.522A4.3,4.3,0,0,1,133.786,146.866Zm5.677,17.141c-.3,1.761-1.17-1.859-1.047-2.6C138.712,159.648,139.586,163.281,139.463,164.007Zm.924-4.47a2.873,2.873,0,1,1,3.3-2.352A2.857,2.857,0,0,1,140.387,159.537Zm5.9-14.679a11.172,11.172,0,0,1-2.192,4.027,1.237,1.237,0,0,1-1.958-.493,2.326,2.326,0,0,1,.246-2.635,7.179,7.179,0,0,0,1.33-2.586c.283-.763,1.022-1.391,1.835-.85A2.26,2.26,0,0,1,146.285,144.859Zm1.33,4.347a2.867,2.867,0,1,1,2.352,3.313,2.857,2.857,0,0,1-2.352-3.312Z" transform="translate(-61.543 -73.718)" fill="none" stroke="#707070" stroke-width="2"/>
</svg>
