<svg xmlns="http://www.w3.org/2000/svg" width="50" height="40" viewBox="0 0 93.569 83.596">
  <path id="noodles" d="M130.809,165.916h-67.4a.859.859,0,0,0-.879.984c.063.523.136,1.046.22,1.559a1.208,1.208,0,0,0,1.162.973h66.378a1.239,1.239,0,0,0,1.172-.973c.084-.513.167-1.036.23-1.559A.859.859,0,0,0,130.809,165.916Zm-1.026,5.7H64.442a.708.708,0,0,0-.722.952,34.487,34.487,0,0,0,7.221,12.934,2.536,2.536,0,0,0,1.664.733h49.006a2.558,2.558,0,0,0,1.664-.733,34.843,34.843,0,0,0,7.231-12.945.707.707,0,0,0-.722-.942ZM119.4,188.4H74.823c-.544,0-.659.293-.241.649a31.25,31.25,0,0,0,3.066,2.3,3.9,3.9,0,0,0,1.831.523H114.8a3.837,3.837,0,0,0,1.821-.534,33.64,33.64,0,0,0,3.024-2.281c.419-.356.3-.659-.241-.659ZM92.09,136.322a33.387,33.387,0,0,1,.136,7.849,28.664,28.664,0,0,0,.042,8.822,22.675,22.675,0,0,1-.324,9.6H88.521c.052-.785.115-1.465.136-2.156.063-2.616.136-5.232.167-7.859.042-3.035.052-6.08.084-9.115.021-1.936.45-3.956.063-5.808-1.046-4.971.178-9.837.209-14.818h3.464a41.353,41.353,0,0,1-.262,4.51A31.114,31.114,0,0,0,92.09,136.322Zm15.76,26.329c-1.057,0-1.873-.052-2.679.01a.926.926,0,0,1-1.141-1.015c-.063-3.045-.293-6.1-.052-9.125a39.644,39.644,0,0,0-.115-8.979,21.614,21.614,0,0,1-.052-6.363,28.19,28.19,0,0,0-.01-9.785,17.182,17.182,0,0,1-.146-3.746,1.184,1.184,0,0,1,.712-.89,16.634,16.634,0,0,1,2.5-.042c.084,1.4.084,2.564.23,3.7a34.98,34.98,0,0,1,.314,10.35,24.861,24.861,0,0,0-.115,7.158,32.931,32.931,0,0,1,.01,9.24,35.849,35.849,0,0,0,.063,6.614A23.062,23.062,0,0,0,107.85,162.651ZM96.967,146.5a36.96,36.96,0,0,0-.021,3.882c.147,2.71.45,5.421.523,8.142a29.338,29.338,0,0,1-.429,4.113H93.419a12.106,12.106,0,0,1,.157-1.789,26.835,26.835,0,0,0,.23-8.822c-.23-2.784.052-5.609.094-8.414.031-2.166.094-4.343.021-6.509-.073-2.3-.419-4.6-.4-6.907a61.169,61.169,0,0,1,.617-6.614,1.1,1.1,0,0,1,.691-.774,20.265,20.265,0,0,1,2.543-.031c.3,5.452-1.046,10.705-.021,16.042C97.814,141.24,97.092,143.919,96.967,146.5ZM83.519,160.14q.078-3.72.052-7.44c-.021-2.02-.481-4.113-.126-6.049a27.637,27.637,0,0,0-.178-10.329,8.431,8.431,0,0,1-.052-2.9c.576-3.474,1.2-6.928.115-10.559h3.16c.1,1.528.251,2.909.283,4.291.073,3.317.094,6.635.115,9.952.01,2.208-.021,4.427-.021,6.635-.01,3.275-.021,6.551.01,9.816.021,2.344.126,4.688.188,7.032.021.67,0,1.339,0,2H83.205A23.106,23.106,0,0,0,83.519,160.14Zm28.359-15.749c.021,2.532.429,5.107.094,7.576a23.461,23.461,0,0,0,.23,9.355,6.507,6.507,0,0,1,.1,1.245h-2.8a27.747,27.747,0,0,1-.22-11.134,17.218,17.218,0,0,0,.136-4.7c-.3-3.453-1.046-6.875-.3-10.36a23.389,23.389,0,0,0-.1-9.1,36.28,36.28,0,0,1-.241-4.479h2.585c.188,1.967.23,3.872.565,5.724a28.109,28.109,0,0,1,.052,8.006A70.492,70.492,0,0,0,111.879,144.39Zm-9.345,18.23H99.687a25.013,25.013,0,0,1-.387-9.994,27.478,27.478,0,0,0,.042-8.686,30.429,30.429,0,0,1,.021-7.43,30.612,30.612,0,0,0-.188-9.376,25.2,25.2,0,0,1-.042-4.27h2.459c.094,1.381.094,2.679.272,3.956a33.548,33.548,0,0,1,.345,9.659,28.783,28.783,0,0,0-.146,7.7,26.747,26.747,0,0,1-.063,8.947,16.074,16.074,0,0,0,.209,7.43C102.377,161.2,102.419,161.877,102.534,162.62ZM63.563,123.544v1.779a.932.932,0,0,0,.858.973l14.368.23v-3.935H64.421A.913.913,0,0,0,63.563,123.544Zm89.651-.952H115.437v4.51l37.778.607a.9.9,0,0,0,.858-.942v-3.223A.913.913,0,0,0,153.214,122.592Zm-88.668-3.045,88.73-4.154a.9.9,0,0,0,.806-.994l-.157-3.213a.892.892,0,0,0-.9-.9l-88.668,5.557a.924.924,0,0,0-.806,1.015l.084,1.769a.926.926,0,0,0,.91.921Z" transform="translate(-61.516 -109.283)" fill="none" stroke="#707070" stroke-width="2"/>
</svg>
