<svg xmlns="http://www.w3.org/2000/svg" width="50" height="40" viewBox="0 0 115.609 96.688">
  <path id="steak" d="M173.979,208.621c-5.531,7.206-13.919,11.335-24.332,11.335-9.933,0-21.229-3.635-33.576-10.79-9.933-5.765-20.19-7.6-29.24-9.206-8.154-1.467-16.438-2.973-22.15-7.686-1.285-1.065-2.155-.74-1.948.909,2.714,21.943,29.85,11.88,55.908,26.967,31.953,18.528,52.065,9.621,56.519-11.049C175.511,207.492,174.979,207.31,173.979,208.621ZM91.09,186.614c8.608,1.4,18.359,2.973,28.175,8.115,10.231,5.375,19.424,8.076,27.344,8.076,7.037,0,12.854-2.246,16.788-6.5,3.8-4.116,5.817-10.011,5.817-17.048,0-21.216-22.644-38.484-50.494-38.484-31.343,0-49.3,10.932-49.3,29.993-.026,12.348,8.608,13.75,21.67,15.853Zm7.1-34.459c7.842,0,14.2,4.934,14.2,11s-6.362,11-14.2,11-14.217-4.921-14.217-11S90.337,152.154,98.193,152.154Zm20.45,52.559c36.394,21.1,57.466,6.622,57.466-20.333s-25.721-48.78-57.466-48.78S62.5,146.987,62.5,173.928,91.181,188.795,118.642,204.713Zm.065-66.347c29.188,0,52.909,18.346,52.909,40.912,0,7.66-2.233,14.113-6.466,18.684-4.4,4.765-10.816,7.284-18.554,7.284-8.323,0-17.892-2.817-28.461-8.349-9.452-4.96-19.008-6.5-27.435-7.868-13.244-2.168-23.709-3.869-23.709-18.255C66.992,150.181,85.845,138.366,118.707,138.366Zm-13.464,24.8c0,3.012-3.155,5.453-7.05,5.453s-7.05-2.441-7.05-5.453,3.155-5.453,7.05-5.453S105.243,160.152,105.243,163.165Z" transform="translate(-61.5 -134.6)" fill="none" stroke="#707070" stroke-width="2"/>
</svg>
