<?xml version="1.0" encoding="utf-8"?>
<!-- Generator: Adobe Illustrator 25.3.1, SVG Export Plug-In . SVG Version: 6.00 Build 0)  -->
<svg version="1.1" id="Layer_1" xmlns="http://www.w3.org/2000/svg" xmlns:xlink="http://www.w3.org/1999/xlink" x="0px" y="0px"
	 viewBox="0 0 22.5 22.5" style="enable-background:new 0 0 22.5 22.5;" xml:space="preserve">
<style type="text/css">
	.st0{fill:#2E2E2E;}
</style>
<g id="Group_23" transform="translate(-236.098 -143.937)">
	<path id="Path_33" class="st0" d="M254.4,147.1h-14.1c-2.2,0-3.9,1.8-3.9,3.9v8.4c0,2.2,1.8,3.9,3.9,3.9c0,0,0,0,0,0h14.1
		c2.2,0,3.9-1.8,3.9-3.9V151C258.3,148.8,256.6,147.1,254.4,147.1C254.4,147.1,254.4,147.1,254.4,147.1z M240.3,148.9h14.1
		c1.2,0,2.1,0.9,2.1,2.1v0.8h-18.3V151C238.2,149.8,239.1,148.9,240.3,148.9L240.3,148.9z M254.4,161.5h-14.1
		c-1.2,0-2.1-0.9-2.1-2.1v-5.8h18.3v5.8C256.5,160.6,255.6,161.5,254.4,161.5L254.4,161.5z"/>
	<path id="Path_34" class="st0" d="M241.4,157.1c-0.8,0-1.5,0.7-1.5,1.5c0,0.8,0.7,1.5,1.5,1.5c0.8,0,1.5-0.7,1.5-1.5
		C242.9,157.8,242.2,157.1,241.4,157.1z"/>
</g>
</svg>
