<?xml version="1.0" encoding="utf-8"?>
<!-- Generator: Adobe Illustrator 25.3.1, SVG Export Plug-In . SVG Version: 6.00 Build 0)  -->
<svg version="1.1" id="Layer_1" xmlns="http://www.w3.org/2000/svg" xmlns:xlink="http://www.w3.org/1999/xlink" x="0px" y="0px"
	 viewBox="0 0 22.5 22.5" style="enable-background:new 0 0 22.5 22.5;" xml:space="preserve">
<style type="text/css">
	.st0{fill:#FFFFFF;}
</style>
<path id="Path_1" class="st0" d="M19.6,6h-2.9c0-3-2.4-5.5-5.5-5.5C8.2,0.5,5.8,3,5.8,6H2.9C1.4,6,0.3,7.2,0.3,8.7v8.2
	c0,2.8,2.3,5.1,5.1,5.1l0,0h11.7c2.8,0,5.1-2.3,5.1-5.1l0,0V8.7C22.2,7.2,21.1,6,19.6,6z M11.3,2.4c2,0,3.6,1.6,3.6,3.6H7.6
	C7.6,4,9.3,2.4,11.3,2.4L11.3,2.4z M20.4,16.8c0,1.8-1.5,3.3-3.3,3.3H5.4c-1.8,0-3.3-1.5-3.3-3.3V8.7c0-0.5,0.4-0.8,0.8-0.8h2.9v1.7
	c0,0.5,0.4,0.9,0.9,0.9s0.9-0.4,0.9-0.9V7.8h7.2v1.7c0,0.5,0.4,0.9,0.9,0.9c0.5,0,0.9-0.4,0.9-0.9V7.8h2.9c0.5,0,0.8,0.4,0.8,0.8
	L20.4,16.8z"/>
</svg>
