<?xml version="1.0" encoding="utf-8"?>
<!-- Generator: Adobe Illustrator 25.3.1, SVG Export Plug-In . SVG Version: 6.00 Build 0)  -->
<svg version="1.1" id="Layer_1" xmlns="http://www.w3.org/2000/svg" xmlns:xlink="http://www.w3.org/1999/xlink" x="0px" y="0px"
	 viewBox="0 0 22.5 22.5" style="enable-background:new 0 0 22.5 22.5;" xml:space="preserve">
<style type="text/css">
	.st0{fill:#2E2E2E;}
</style>
<g id="Group_14" transform="translate(0)">
	<path id="Path_12" class="st0" d="M15.7,5.8h-9C4.6,5.9,3,7.7,3.1,9.9v4.9c-0.1,2.1,1.6,3.9,3.7,4h4l2.9,2.9c0.3,0.3,0.6,0.4,1,0.4
		c0.2,0,0.4,0,0.6-0.1c0.5-0.2,0.9-0.7,0.9-1.3v-1.9c1.9-0.3,3.3-2,3.3-4V9.9C19.5,7.7,17.9,5.9,15.7,5.8z M18.1,14.8
		c0.1,1.2-0.7,2.3-1.9,2.6c-0.1,0-0.3,0-0.4,0h-0.9v3.3c0,0,0,0-0.1,0.1c0,0-0.1,0-0.1,0l-2-2l-1.4-1.4H6.8
		c-1.4-0.1-2.4-1.3-2.3-2.7V9.9c-0.1-1.4,1-2.6,2.3-2.7h9c1.4,0.1,2.4,1.3,2.3,2.7L18.1,14.8z"/>
	<path id="Path_13" class="st0" d="M15.5,10.3H7c-0.4,0-0.7,0.3-0.7,0.7s0.3,0.7,0.7,0.7h8.5c0.4,0,0.7-0.3,0.7-0.7
		S15.9,10.3,15.5,10.3z"/>
	<path id="Path_14" class="st0" d="M11.2,13H7.1c-0.4,0-0.7,0.3-0.7,0.7s0.3,0.7,0.7,0.7l0,0h4.1c0.4,0,0.7-0.3,0.7-0.7
		S11.6,13,11.2,13L11.2,13z"/>
</g>
</svg>
