<?xml version="1.0" encoding="utf-8"?>
<!-- Generator: Adobe Illustrator 25.3.1, SVG Export Plug-In . SVG Version: 6.00 Build 0)  -->
<svg version="1.1" id="Layer_1" xmlns="http://www.w3.org/2000/svg" xmlns:xlink="http://www.w3.org/1999/xlink" x="0px" y="0px"
	 viewBox="0 0 22.5 22.5" style="enable-background:new 0 0 22.5 22.5;" xml:space="preserve">
<style type="text/css">
	.st0{fill:#EC1036;}
</style>
<g id="Group_19" transform="translate(-237.6 -106.679)">
	<path id="Path_22" class="st0" d="M257.4,110.7h-2.9c-0.1-2.1-1.9-3.8-4-3.8h-3.4c-2.1,0-3.9,1.7-4,3.8h-2.9
		c-0.5,0-0.9,0.4-0.9,0.9c0,0.5,0.4,0.9,0.9,0.9h0.9v12.4c0,2.2,1.8,4,4,4h7.3c2.2,0,4-1.8,4-4v-12.4h0.9c0.5,0,0.9-0.4,0.9-0.9
		C258.4,111.1,258,110.7,257.4,110.7L257.4,110.7z M247.1,108.8h3.4c1.1,0,2,0.8,2.2,1.9H245C245.1,109.6,246,108.8,247.1,108.8
		L247.1,108.8z M254.6,124.9c0,1.2-1,2.2-2.2,2.2h-7.3c-1.2,0-2.2-1-2.2-2.2v-12.4h11.6L254.6,124.9z"/>
	<path id="Path_23" class="st0" d="M247,115.7c-0.5,0-0.9,0.4-0.9,0.9v6.5c0,0.5,0.4,0.9,0.9,0.9s0.9-0.4,0.9-0.9l0,0v-6.5
		C247.9,116.1,247.5,115.7,247,115.7C247,115.7,247,115.7,247,115.7z"/>
	<path id="Path_24" class="st0" d="M250.7,115.7c-0.5,0-0.9,0.4-0.9,0.9v6.5c0,0.5,0.4,0.9,0.9,0.9s0.9-0.4,0.9-0.9l0,0v-6.5
		C251.6,116.1,251.2,115.7,250.7,115.7C250.7,115.7,250.7,115.7,250.7,115.7z"/>
</g>
</svg>
