<?xml version="1.0" encoding="utf-8"?>
<!-- Generator: Adobe Illustrator 25.3.1, SVG Export Plug-In . SVG Version: 6.00 Build 0)  -->
<svg version="1.1" id="Layer_1" xmlns="http://www.w3.org/2000/svg" xmlns:xlink="http://www.w3.org/1999/xlink" x="0px" y="0px"
	 viewBox="0 0 25.8 25.8" style="enable-background:new 0 0 25.8 25.8;" xml:space="preserve">
<style type="text/css">
	.st0{fill:#FFFFFF;}
</style>
<path id="room-service" class="st0" d="M24.5,21.3v-2.1c0-6-4.6-11-10.5-11.5V6.3c1-0.6,1.4-1.9,0.8-2.9c-0.6-1-1.9-1.4-2.9-0.8
	s-1.4,1.9-0.8,2.9c0.2,0.3,0.5,0.6,0.8,0.8v1.4c-6,0.5-10.5,5.5-10.5,11.5v2.1c-0.6,0-1.1,0.5-1.1,1.1c0,0.6,0.5,1.1,1.1,1.1h23.2
	c0.6,0,1.1-0.5,1.1-1.1C25.5,21.8,25.1,21.3,24.5,21.3z M3.4,19.2c0.5-12.6,18.5-12.6,19,0v2.1h-19V19.2z"/>
</svg>
