<?xml version="1.0" encoding="utf-8"?>
<!-- Generator: Adobe Illustrator 25.3.1, SVG Export Plug-In . SVG Version: 6.00 Build 0)  -->
<svg version="1.1" id="Layer_1" xmlns="http://www.w3.org/2000/svg" xmlns:xlink="http://www.w3.org/1999/xlink" x="0px" y="0px"
	 viewBox="0 0 22.5 22.5" style="enable-background:new 0 0 22.5 22.5;" xml:space="preserve">
<style type="text/css">
	.st0{fill:#2E2E2E;}
</style>
<path id="Path_21" class="st0" d="M11.2,2.1L11.2,2.1c0.8,0,1.5,0.3,2,0.8l6.3,6.3c0.5,0.5,0.8,1.3,0.8,2v7.7c0,0.8-0.7,1.5-1.5,1.5
	h-3.6v-2.8c0-1.6-1.3-3-3-3h-2.3c-1.6,0-3,1.3-3,3v2.8H3.6c-0.8,0-1.5-0.7-1.5-1.5v-7.7c0-0.8,0.3-1.5,0.8-2l6.3-6.3
	C9.8,2.4,10.5,2.1,11.2,2.1 M11.2,0.3c-1.2,0-2.4,0.5-3.3,1.4L1.6,7.9C0.7,8.8,0.2,10,0.2,11.2v7.7c0,1.9,1.5,3.4,3.4,3.4
	c0,0,0,0,0,0H9v-4.6c0-0.6,0.5-1.1,1.1-1.1l0,0h2.3c0.6,0,1.1,0.5,1.1,1.1c0,0,0,0,0,0v4.6h5.4c1.9,0,3.4-1.5,3.4-3.4v-7.7
	c0-1.2-0.5-2.4-1.4-3.3l-6.3-6.3C13.7,0.7,12.5,0.2,11.2,0.3L11.2,0.3z"/>
</svg>
