<?xml version="1.0" encoding="utf-8"?>
<!-- Generator: Adobe Illustrator 25.3.1, SVG Export Plug-In . SVG Version: 6.00 Build 0)  -->
<svg version="1.1" id="Layer_1" xmlns="http://www.w3.org/2000/svg" xmlns:xlink="http://www.w3.org/1999/xlink" x="0px" y="0px"
	 viewBox="0 0 22.5 22.5" style="enable-background:new 0 0 22.5 22.5;" xml:space="preserve">
<style type="text/css">
	.st0{fill:#2E2E2E;}
</style>
<path id="Path_15" class="st0" d="M19.2,9.1c-0.6-0.7-1.4-1-2.2-1.1h-3.3c-0.1,0-0.2-0.1-0.2-0.2c0,0,0,0,0,0L13.9,6
	c0.2-1.1-0.5-2.1-1.6-2.3c-0.8-0.2-1.7,0.2-2.1,1L8.4,8c0,0.1-0.1,0.1-0.2,0.1H5.5c-1.6,0-2.9,1.3-2.9,2.9v4.9
	c0,1.6,1.3,2.9,2.9,2.9h10.6c1.4,0,2.6-1,2.9-2.4l0.8-4.9C20,10.7,19.8,9.8,19.2,9.1z M4,15.9V11c0-0.9,0.7-1.6,1.6-1.6H8v8H5.5
	C4.7,17.5,4,16.7,4,15.9L4,15.9z M18.5,11.3l-0.8,4.9c-0.1,0.8-0.8,1.3-1.5,1.3H9.4V8.9c0.1-0.1,0.1-0.1,0.2-0.2l1.8-3.3
	c0.2-0.3,0.5-0.4,0.8-0.2c0.2,0.1,0.4,0.4,0.3,0.6l-0.3,1.9c-0.2,0.8,0.4,1.6,1.2,1.8c0.1,0,0.2,0,0.3,0H17c0.9,0,1.6,0.7,1.6,1.6
	C18.5,11.1,18.5,11.2,18.5,11.3L18.5,11.3z"/>
</svg>
