<?xml version="1.0" encoding="utf-8"?>
<!-- Generator: Adobe Illustrator 25.3.1, SVG Export Plug-In . SVG Version: 6.00 Build 0)  -->
<svg version="1.1" id="Layer_1" xmlns="http://www.w3.org/2000/svg" xmlns:xlink="http://www.w3.org/1999/xlink" x="0px" y="0px"
	 viewBox="0 0 22.5 22.5" style="enable-background:new 0 0 22.5 22.5;" xml:space="preserve">
<style type="text/css">
	.st0{fill:#2E2E2E;}
</style>
<path id="Path_9" class="st0" d="M22,11.6L22,11.6c-2.4-4.8-6.3-8.7-11.1-11.1c-0.6-0.3-1.3-0.3-2-0.1C8.3,0.6,7.8,1.1,7.5,1.8
	L0.4,18.9c-0.5,1.2,0.1,2.7,1.3,3.2c0.6,0.2,1.3,0.2,1.9,0l15.2-6.3l0,0l1.9-0.8c0.6-0.3,1.1-0.8,1.3-1.4
	C22.3,12.9,22.3,12.2,22,11.6z M5.2,12.3c0.9,0.2,1.5,1.2,1.2,2.1c-0.2,0.9-1.2,1.5-2.1,1.2c-0.1,0-0.3-0.1-0.4-0.2L5.2,12.3z
	 M2.3,20.2c-0.2-0.2-0.2-0.4-0.1-0.6l1-2.5c1.8,0.9,3.9,0.1,4.8-1.6c0.9-1.8,0.1-3.9-1.6-4.8c-0.1-0.1-0.3-0.1-0.4-0.2l1.9-4.5
	c1.3,0.6,2.5,1.4,3.7,2.3c-1.6,1.2-1.9,3.4-0.8,5c1.2,1.6,3.4,1.9,5,0.8c0.1-0.1,0.2-0.2,0.3-0.3c0.2,0.3,0.3,0.6,0.5,0.9L2.9,20.3
	C2.7,20.4,2.4,20.4,2.3,20.2L2.3,20.2z M12.9,9.7c0.8,0.8,1.5,1.6,2.1,2.5c-0.3,0.5-0.9,0.8-1.4,0.8c-0.9,0-1.7-0.8-1.7-1.7
	C11.8,10.6,12.2,9.9,12.9,9.7L12.9,9.7z M20.4,12.9c-0.1,0.1-0.2,0.3-0.3,0.3l-1.9,0.8c-2-4.3-5.4-7.7-9.7-9.7l0.8-1.9
	c0.1-0.1,0.2-0.3,0.3-0.3c0.1,0,0.1,0,0.2,0c0.1,0,0.2,0,0.3,0.1c4.5,2.2,8.1,5.8,10.3,10.3C20.4,12.6,20.4,12.8,20.4,12.9
	L20.4,12.9z"/>
</svg>
