<?xml version="1.0" encoding="utf-8"?>
<!-- Generator: Adobe Illustrator 25.3.1, SVG Export Plug-In . SVG Version: 6.00 Build 0)  -->
<svg version="1.1" id="Layer_1" xmlns="http://www.w3.org/2000/svg" xmlns:xlink="http://www.w3.org/1999/xlink" x="0px" y="0px"
	 viewBox="0 0 22.5 22.5" style="enable-background:new 0 0 22.5 22.5;" xml:space="preserve">
<style type="text/css">
	.st0{fill:#2E2E2E;}
</style>
<path id="Path_2" class="st0" d="M22,20.7l-4.6-4.6c3.4-4.1,2.8-10.3-1.3-13.7C12-1,5.9-0.4,2.5,3.7C-1,7.9-0.4,14,3.8,17.4
	c3.6,3,8.8,3,12.4,0l4.6,4.6c0.4,0.4,0.9,0.4,1.3,0C22.4,21.7,22.4,21.1,22,20.7L22,20.7z M10,17.8c-4.3,0-7.8-3.5-7.9-7.8
	S5.6,2.1,10,2.1s7.8,3.5,7.9,7.8c0,2.1-0.8,4.1-2.3,5.6C14,17,12,17.8,10,17.8z"/>
</svg>
