<?xml version="1.0" encoding="utf-8"?>
<!-- Generator: Adobe Illustrator 25.3.1, SVG Export Plug-In . SVG Version: 6.00 Build 0)  -->
<svg version="1.1" id="Layer_1" xmlns="http://www.w3.org/2000/svg" xmlns:xlink="http://www.w3.org/1999/xlink" x="0px" y="0px"
	 viewBox="0 0 22.5 22.5" style="enable-background:new 0 0 22.5 22.5;" xml:space="preserve">
<style type="text/css">
	.st0{fill:#2E2E2E;}
</style>
<g id="Group_1" transform="translate(-139.73 -106.52)">
	<path id="Path_3" class="st0" d="M140.9,111.4h2.5c0.5,2,2.5,3.1,4.5,2.6c1.3-0.3,2.3-1.3,2.6-2.6h10.6c0.5,0,0.9-0.4,0.9-0.9
		c0-0.5-0.4-0.9-0.9-0.9h-10.6c-0.5-2-2.5-3.1-4.5-2.6c-1.3,0.3-2.3,1.3-2.6,2.6h-2.5c-0.5,0-0.9,0.4-0.9,0.9
		C140,110.9,140.4,111.4,140.9,111.4z M146.9,108.6c1,0,1.8,0.8,1.8,1.8c0,0.3-0.1,0.6-0.2,0.9c-0.3,0.6-0.9,0.9-1.6,0.9
		c-0.7,0-1.3-0.4-1.6-0.9c-0.2-0.3-0.3-0.6-0.3-0.9c0-0.3,0.1-0.6,0.3-0.9C145.7,109,146.3,108.6,146.9,108.6L146.9,108.6z"/>
	<path id="Path_4" class="st0" d="M161.1,116.9h-2.5c-0.5-2-2.5-3.1-4.5-2.6c-1.3,0.3-2.3,1.3-2.6,2.6h-10.6c-0.5,0-0.9,0.4-0.9,0.9
		c0,0.5,0.4,0.9,0.9,0.9h10.6c0.5,2,2.5,3.1,4.5,2.6c1.3-0.3,2.3-1.3,2.6-2.6h2.5c0.5,0,0.9-0.4,0.9-0.9
		C162,117.3,161.6,116.9,161.1,116.9z M155,119.6c-0.7,0-1.3-0.3-1.6-0.9c-0.3-0.6-0.3-1.3,0-1.8c0.5-0.9,1.6-1.2,2.5-0.7
		c0.3,0.2,0.5,0.4,0.7,0.7c0.5,0.9,0.2,2-0.7,2.5C155.7,119.5,155.4,119.6,155,119.6L155,119.6z"/>
	<path id="Path_5" class="st0" d="M161.1,124.2h-10.6c-0.5-2-2.5-3.1-4.5-2.6c-1.3,0.3-2.3,1.3-2.6,2.6h-2.5c-0.5,0-0.9,0.4-0.9,0.9
		c0,0.5,0.4,0.9,0.9,0.9l0,0h2.5c0.5,2,2.5,3.1,4.5,2.6c1.3-0.3,2.3-1.3,2.6-2.6h10.6c0.5,0,0.9-0.4,0.9-0.9
		C162,124.6,161.6,124.2,161.1,124.2z M146.9,126.9c-0.7,0-1.3-0.3-1.6-0.9c-0.3-0.6-0.3-1.3,0-1.8c0.5-0.9,1.6-1.2,2.5-0.7
		s1.2,1.6,0.7,2.5C148.2,126.6,147.6,126.9,146.9,126.9z"/>
</g>
</svg>
