<svg xmlns="http://www.w3.org/2000/svg" width="50" height="60" viewBox="0 0 110.112 70.43">
  <path id="chicken-fry" d="M167.695,238.6c-7.541-15.033-27.882-20.057-45.445-11.244a38.755,38.755,0,0,0-18.514,19.3,4.123,4.123,0,0,0-.469.642c-2.111,3.678-6.27,9.751-11.985,12.639a3.648,3.648,0,0,0-2.049,4.443l4.073,11.54a5.373,5.373,0,0,0,4.456,3.123c3.16.42,9.331,1.666,21.377,4.912a4.49,4.49,0,0,0,.642.123c8.911,3.221,19.773,2.691,29.746-2.32C167.1,272.954,175.236,253.626,167.695,238.6Zm-22.76-3.431c-12.491-2.209-21.661,6.011-29.326,14.836-3.3,3.789-7.566,1.456-4.271-2.345,9.566-11.01,20.662-19.5,35.979-16.8C152.291,231.755,149.884,236.038,144.935,235.174Zm-59.8,30.141-4.221,1.234a9.752,9.752,0,0,0-3.851-3.8,9.964,9.964,0,0,0-13.515,3.95c-2.271,4.135-.568,8.739,2.8,11.75-1.111,4.308.086,9.467,4.135,11.676a9.923,9.923,0,0,0,14.663-9.738L89.2,279.2Z" transform="translate(-61.501 -221.945)" fill="none" stroke="#707070" stroke-width="2"/>
</svg>
