<?xml version="1.0" encoding="utf-8"?>
<!-- Generator: Adobe Illustrator 25.3.1, SVG Export Plug-In . SVG Version: 6.00 Build 0)  -->
<svg version="1.1" id="Layer_1" xmlns="http://www.w3.org/2000/svg" xmlns:xlink="http://www.w3.org/1999/xlink" x="0px" y="0px"
	 viewBox="0 0 22.5 22.5" style="enable-background:new 0 0 22.5 22.5;" xml:space="preserve">
<style type="text/css">
	.st0{fill:#2E2E2E;}
</style>
<g>
	<path class="st0" d="M20.2,14C20.2,14,20.2,14,20.2,14L20.2,14h-2c-0.4,0-0.7,0.1-1,0.3L16,15c-0.6,0.4-1.4,0.4-2.1,0l-1.2-0.7
		c-0.3-0.2-0.7-0.3-1-0.3H2.3c-1.1,0-2,0.9-2,2v0c0,3.4,2.8,6.2,6.2,6.2c0,0,0,0,0,0H16c3.4,0,6.2-2.8,6.2-6.2
		C22.2,14.9,21.3,14,20.2,14z M16,20.4H6.5c-2.4,0-4.4-2-4.4-4.4c0-0.1,0.1-0.2,0.2-0.2h9.5c0,0,0.1,0,0.1,0l1.2,0.7
		c1.2,0.7,2.7,0.7,3.9,0l1.2-0.7c0,0,0.1,0,0.1,0h2h0c0.1,0,0.2,0.1,0.2,0.2C20.4,18.4,18.4,20.4,16,20.4z"/>
	<path class="st0" d="M21.3,10.3H1.2c-0.5,0-0.9,0.4-0.9,0.9c0,0.5,0.4,0.9,0.9,0.9h20.2c0.5,0,0.9-0.4,0.9-0.9
		C22.2,10.8,21.8,10.3,21.3,10.3z"/>
	<path class="st0" d="M16,0.3L16,0.3H6.5C3,0.3,0.2,3,0.2,6.5v0c0,1.1,0.9,2,2,2h17.9c1.1,0,2-0.9,2-2v0C22.3,3,19.5,0.3,16,0.3z
		 M20.4,6.5c0,0.1-0.1,0.2-0.2,0.2H2.3c-0.1,0-0.2-0.1-0.2-0.2v0c0-2.4,2-4.4,4.4-4.4H16h0C18.4,2.1,20.4,4.1,20.4,6.5L20.4,6.5z"/>
</g>
</svg>
